# AST/ASF file generated using VICON BodyLanguage
# -----------------------------------------------
:version 1.10
:name VICON
:units
  mass 1.0
  length 0.45
  angle deg
:documentation
   .ast/.asf automatically generated from VICON data using
   VICON BodyBuilder and BodyLanguage model FoxedUp or BRILLIANT.MOD
:root
   order TX TY TZ RX RY RZ
   axis XYZ
   position 0 0 0  
   orientation 0 0 0 
:bonedata
  begin
     id 1 
     name lhipjoint
     direction 0.671379 -0.66392 0.329334 
     length 2.38647 
     axis 0 0 0  XYZ
  end
  begin
     id 2 
     name lfemur
     direction 0.34202 -0.939693 0  
     length 6.48179  
     axis 0 0 20  XYZ
    dof rx ry rz
    limits (-160.0 20.0)
           (-70.0 70.0)
           (-60.0 70.0)
  end
  begin
     id 3 
     name ltibia
     direction 0.34202 -0.939693 0   
     length 6.86524   
     axis 0 0 20   XYZ
    dof rx
    limits (-10.0 170.0)
  end
  begin
     id 4 
     name lfoot
     direction 0.204886 -0.562919 0.800715   
     length 1.73031   
     axis -90 7.62852e-016 20   XYZ
    dof rx rz
    limits (-45.0 90.0)
           (-70.0 20.0)
  end
  begin
     id 5 
     name ltoes
     direction 1.53548e-011 -4.21841e-011 1   
     length 0.828161   
     axis -90 7.62852e-016 20   XYZ
    dof rx
    limits (-90.0 20.0)
  end
  begin
     id 6 
     name rhipjoint
     direction -0.662732 -0.670855 0.332775   
     length 2.3618  
     axis 0 0 0  XYZ 
  end
  begin
     id 7 
     name rfemur
     direction -0.34202 -0.939693 0   
     length 6.3025   
     axis 0 0 -20   XYZ
    dof rx ry rz
    limits (-160.0 20.0)
           (-70.0 70.0)
           (-70.0 60.0)
  end
  begin
     id 8 
     name rtibia
     direction -0.34202 -0.939693 0   
     length 6.8732   
     axis 0 0 -20   XYZ
    dof rx
    limits (-10.0 170.0)
 end
 begin
     id 9 
     name rfoot
     direction -0.173856 -0.477665 0.861168   
     length 1.54784  
     axis -90 -7.62852e-016 -20   XYZ
    dof rx rz
    limits (-45.0 90.0)
           (-20.0 70.0)
  end
  begin
     id 10 
     name rtoes
     direction -1.53562e-011 -4.21802e-011 1   
     length 0.759618   
     axis -90 -7.62852e-016 -20   XYZ
    dof rx
    limits (-90.0 20.0)
  end
  begin
     id 11 
     name lowerback
     direction -0.0278357 0.999497 -0.0151789   
     length 1.97203   
     axis 0 0 0   XYZ
    dof rx ry rz
    limits (-20.0 45.0)
           (-30.0 30.0)
           (-30.0 30.0)
  end
  begin
     id 12 
     name upperback
     direction -0.00360622 0.997542 0.0699804   
     length 1.94709   
     axis 0 0 0   XYZ
    dof rx ry rz
    limits (-20.0 45.0)
           (-30.0 30.0)
           (-30.0 30.0)
  end
  begin
     id 13 
     name thorax
     direction 0.00907706 0.997048 0.0762461   
     length 1.95722   
     axis 0 0 0   XYZ
    dof rx ry rz
    limits (-20.0 45.0)
           (-30.0 30.0)
           (-30.0 30.0)
  end
  begin
     id 14 
     name lowerneck
     direction -0.0481835 0.99872 -0.0153927   
     length 1.63078   
     axis 0 0 0   XYZ
    dof rx ry rz
    limits (-20.0 45.0)
           (-30.0 30.0)
           (-30.0 30.0)
  end
  begin
     id 15 
     name upperneck
     direction 0.0859716 0.979226 -0.183644   
     length 1.62591   
     axis 0 0 0   XYZ
    dof rx ry rz
    limits (-20.0 45.0)
           (-30.0 30.0)
           (-30.0 30.0)
  end
  begin
     id 16
     name head
     direction 0.0324821 0.997629 -0.0606773  
     length 1.64811  
     axis 0 0 0   XYZ
    dof rx ry rz
    limits (-20.0 45.0)
           (-30.0 30.0)
           (-30.0 30.0)
  end
  begin
     id 17 
     name lclavicle
     direction 0.939609 0.311019 0.142835  
     length 3.70647  
     axis 0 0 0   XYZ
    dof ry rz
    limits (-20.0 10.0)
           (0.0 20.0)
  end
  begin
     id 18 
     name lhumerus
     direction 1 -4.48963e-011 -1.59838e-027   
     length 4.59207   
     axis 180 -30 -90   XYZ
    dof rx ry rz
    limits (-60.0 90.0)
           (-90.0 90.0)
           (-90.0 90.0)
  end
  begin
     id 19
     name lradius
     direction 1 -4.48957e-011 -1.3483e-026   
     length 2.98109   
     axis 180 -30 -90   XYZ
    dof rx
    limits (-10.0 170.0)
  end
  begin
     id 20
     name lwrist
     direction 1 -4.48954e-011 -3.11579e-026   
     length 1.49055   
     axis 2.00652e-014 90 90   XYZ
    dof ry
    limits (-180.0 0.0)
 end
  begin
     id 21 
     name lhand
     direction 1 -4.4911e-011 -6.23158e-026   
     length 0.480203   
     axis 3.97628e-014 90 90   XYZ
    dof rx rz
    limits (-90.0 90.0)
           (-45.0 45.0)
  end
  begin
     id 22 
     name lfingers
     direction 1 -4.48893e-011 -1.24632e-025   
     length 0.387152   
     axis 7.95256e-014 90 90   XYZ
    dof rx
    limits (0.0 90.0)
  end
  begin
     id 23
     name lthumb
     direction 0.707107 -6.35013e-011 0.707107   
     length 0.555875   
     axis -90 45 2.85299e-015   XYZ
    dof rx rz
    limits (-45.0 45.0)
           (-45.0 45.0)
  end
  begin
     id 24 
     name rclavicle
     direction -0.950396 0.30392 0.0661859   
     length 3.70894  
     axis 0 0 0   XYZ 
    dof ry rz
    limits (-10.0 20.0)
           (-20.0 0.0)
  end
  begin
     id 25 
     name rhumerus
     direction -1 -4.48957e-011 -2.96677e-027  
     length 4.76508   
     axis 180 30 90   XYZ
    dof rx ry rz
    limits (-90.0 60.0)
           (-90.0 90.0)
           (-90.0 90.0)
  end
  begin
     id 26 
     name rradius
     direction -1 -4.48974e-011 -1.44501e-026   
     length 2.78902   
     axis 180 30 90   XYZ
    dof rx
    limits (-10.0 170.0)
  end
  begin
     id 27 
     name rwrist
     direction -1 -4.48978e-011 -3.11579e-026   
     length 1.39451   
     axis 2.00652e-014 -90 -90   XYZ
    dof ry
    limits (-180.0 0.0)
  end
  begin
     id 28
     name rhand
     direction -1 -4.48956e-011 -6.23158e-026   
     length 0.721303   
     axis 3.97628e-014 -90 -90   XYZ
    dof rx rz
    limits (-90.0 90.0)
           (-45.0 45.0)
  end
  begin
     id 29
     name rfingers
     direction -1 -4.4899e-011 -1.24632e-025   
     length 0.581533   
     axis 7.95256e-014 -90 -90   XYZ
    dof rx
    limits (0.0 90.0)
  end
  begin
     id 30
     name rthumb
     direction -0.707107 -6.34911e-011 0.707107   
     length 0.834968   
     axis -90 -45 -2.85299e-015   XYZ
    dof rx rz
    limits (-45.0 45.0)
           (-45.0 45.0)
  end
:hierarchy
  begin
    root lhipjoint rhipjoint lowerback
    lhipjoint lfemur
    lfemur ltibia
    ltibia lfoot
    lfoot ltoes
    rhipjoint rfemur
    rfemur rtibia
    rtibia rfoot
    rfoot rtoes
    lowerback upperback
    upperback thorax
    thorax lowerneck lclavicle rclavicle
    lowerneck upperneck
    upperneck head
    lclavicle lhumerus
    lhumerus lradius
    lradius lwrist
    lwrist lhand lthumb
    lhand lfingers
    rclavicle rhumerus
    rhumerus rradius
    rradius rwrist
    rwrist rhand rthumb
    rhand rfingers
  end

#!OML:ASF I:\salsa\salsa 7_09\Patient 1\Session 1\dancerfemale.ASF
:FULLY-SPECIFIED
:DEGREES
1262
root -12.1457 15.8636 -4.11963 -459.31 -619.023 -94.7598
lowerback 6.04757 -1.63998 0.332295
upperback -0.31827 -2.28161 -6.80188
thorax -4.03209 -1.15933 -7.11517
lowerneck 17.7733 -1.86136 -8.9302
upperneck -3.12986 -3.07874 14.6468
head -3.46351 -2.16164 6.30043
rclavicle -3.00662e-015 8.74653e-015
rhumerus 59.2687 3.8241 -56.5308
rradius 101.541
rwrist -70.028
rhand -18.804 36.4503
rfingers 7.12502
rthumb 7.49431 6.60303
lclavicle -3.00662e-015 8.74653e-015
lhumerus -21.0533 -11.9979 100.913
lradius 59.6345
lwrist -25.1231
lhand -37.4584 16.4386
lfingers 7.12502
lthumb -10.5169 46.1555
rfemur -33.956 -9.3699 7.42765
rtibia 64.0756
rfoot -2.80751 -7.89881
rtoes -2.51693
lfemur -4.45777 5.88963 -39.5583
ltibia 25.5191
lfoot -19.8733 -7.64031
ltoes -12.8279
1263
root -11.971 15.8879 -4.10303 -453.346 -619.151 -89.0248
lowerback 5.60077 -2.48642 0.715218
upperback -0.0832423 -3.36847 -7.15394
thorax -3.72004 -1.70404 -7.6215
lowerneck 17.7634 -1.46078 -8.6981
upperneck -2.71397 -2.50271 14.8155
head -3.41326 -1.87678 6.26942
rclavicle -9.93923e-015 -4.57205e-014
rhumerus 63.1854 0.544021 -54.985
rradius 102.013
rwrist -70.8333
rhand -18.8269 36.592
rfingers 7.12502
rthumb 7.4722 6.74394
lclavicle -9.93923e-015 -4.57205e-014
lhumerus -21.4704 -10.223 100.148
lradius 60.4572
lwrist -26.2619
lhand -39.1389 16.1823
lfingers 7.12502
lthumb -12.1376 45.8102
rfemur -34.3057 -8.39699 7.37759
rtibia 59.0981
rfoot -3.97809 -8.69472
rtoes -3.55916
lfemur -3.50843 6.5415 -39.1758
ltibia 24.8123
lfoot -19.8181 -9.6286
ltoes -13.8121
1264
root -11.7942 15.9099 -4.08297 -447.411 -619.174 -83.3842
lowerback 5.13703 -3.36172 0.956618
upperback 0.114389 -4.50781 -7.40735
thorax -3.4536 -2.27385 -7.94583
lowerneck 17.931 -1.00505 -8.48595
upperneck -2.65881 -1.8539 14.82
head -3.50684 -1.56284 6.19372
rclavicle -3.5657e-014 -3.26007e-014
rhumerus 66.588 -2.76584 -53.6113
rradius 102.777
rwrist -71.9419
rhand -18.7876 36.8903
rfingers 7.12502
rthumb 7.51014 7.04364
lclavicle -3.5657e-014 -3.26007e-014
lhumerus -22.0621 -8.51965 99.5893
lradius 61.327
lwrist -26.797
lhand -40.585 16.3802
lfingers 7.12502
lthumb -13.5316 45.9206
rfemur -34.3906 -7.26734 7.16704
rtibia 53.864
rfoot -4.3176 -9.62606
rtoes -3.40362
lfemur -2.56275 7.61055 -38.6643
ltibia 23.9049
lfoot -19.4849 -12.0837
ltoes -13.9371
1265
root -11.6164 15.9292 -4.06124 -442.711 -619.099 -78.9461
lowerback 4.838 -4.09204 1.22628
upperback 0.276345 -5.45878 -7.77223
thorax -3.32203 -2.75265 -8.42706
lowerneck 17.9388 -0.701539 -7.99035
upperneck -2.49235 -1.34112 14.8604
head -3.52651 -1.31158 6.08309
rclavicle -1.33931e-014 -6.59965e-014
rhumerus 69.3105 -6.41288 -52.4271
rradius 103.651
rwrist -72.1367
rhand -18.389 37.7505
rfingers 7.12502
rthumb 7.89489 7.91795
lclavicle -1.33931e-014 -6.59965e-014
lhumerus -22.8767 -7.23013 98.9719
lradius 62.1685
lwrist -27.3109
lhand -41.7392 16.2888
lfingers 7.12502
lthumb -14.6439 45.7517
rfemur -34.2941 -6.27362 6.85747
rtibia 48.718
rfoot -3.93029 -10.0692
rtoes -3.5058
lfemur -1.46008 8.80724 -38.1347
ltibia 22.7026
lfoot -18.888 -14.4095
ltoes -12.9129
1266
root -11.4361 15.9541 -4.03535 -439.417 -618.807 -75.736
lowerback 4.84036 -4.75528 0.907425
upperback 0.415861 -6.35561 -7.949
thorax -3.3061 -3.19317 -8.34839
lowerneck 17.8285 -0.362703 -7.57208
upperneck -2.27519 -0.820971 14.6852
head -3.50784 -1.04053 5.91044
rclavicle -6.27538e-014 -3.97569e-015
rhumerus 71.7478 -9.96371 -51.1119
rradius 104.799
rwrist -71.4529
rhand -18.1188 38.9258
rfingers 7.12502
rthumb 8.1557 9.10316
lclavicle -6.27538e-014 -3.97569e-015
lhumerus -23.646 -5.61013 98.689
lradius 62.8053
lwrist -28.3517
lhand -42.9399 16.7337
lfingers 7.12502
lthumb -15.8005 46.1088
rfemur -34.0338 -5.61947 6.40789
rtibia 43.9997
rfoot -1.38822 -10.7466
rtoes -6.10887
lfemur -0.0175087 9.79623 -37.7786
ltibia 21.1741
lfoot -17.9685 -16.3416
ltoes -10.9367
